<?xml version="1.0" encoding="UTF-8"?>
<svg id="Calque_1" xmlns="http://www.w3.org/2000/svg" xmlns:xlink="http://www.w3.org/1999/xlink" version="1.1" viewBox="0 0 600 660">
  <!-- Generator: Adobe Illustrator 29.8.1, SVG Export Plug-In . SVG Version: 2.1.1 Build 2)  -->
  <defs>
    <style>
      .st0, .st1, .st2, .st3 {
        fill: none;
      }

      .st1, .st4, .st5, .st6, .st7, .st8, .st2, .st9, .st3, .st10, .st11 {
        stroke: #000;
      }

      .st1, .st5, .st6, .st8, .st11 {
        stroke-miterlimit: 4.1;
      }

      .st1, .st6, .st8, .st11 {
        stroke-width: .7px;
      }

      .st4, .st7 {
        fill: #e20909;
      }

      .st5 {
        stroke-width: 2.7px;
      }

      .st5, .st6, .st8, .st9, .st10 {
        fill: #fcef3c;
      }

      .st5, .st8, .st11 {
        fill-rule: evenodd;
      }

      .st12, .st11 {
        fill: #fff;
      }

      .st13 {
        fill: url(#Dégradé_sans_nom);
      }

      .st7 {
        stroke-miterlimit: 10;
      }

      .st2 {
        stroke-width: 3px;
      }

      .st10 {
        stroke-linecap: round;
        stroke-linejoin: bevel;
        stroke-width: .2px;
      }

      .st14 {
        clip-path: url(#clippath);
      }
    </style>
    <clipPath id="clippath">
      <path id="a1" data-name="a" class="st0" d="M1.5,1.5h597v258.5c0,286.2-298.5,398.4-298.5,398.4,0,0-298.5-112.2-298.5-398.4V1.5Z"/>
    </clipPath>
    <radialGradient id="Dégradé_sans_nom" data-name="Dégradé sans nom" cx="220" cy="439.9" fx="220" fy="439.9" r="405" gradientTransform="translate(0 659.9) scale(1 -1)" gradientUnits="userSpaceOnUse">
      <stop offset="0" stop-color="#fff" stop-opacity=".3"/>
      <stop offset=".2" stop-color="#fff" stop-opacity=".2"/>
      <stop offset=".6" stop-color="#6b6b6b" stop-opacity=".1"/>
      <stop offset="1" stop-color="#000" stop-opacity=".1"/>
    </radialGradient>
  </defs>
  <path id="a" class="st12" d="M1.5,1.5h597v258.5c0,286.2-298.5,398.4-298.5,398.4,0,0-298.5-112.2-298.5-398.4V1.5Z"/>
  <g class="st14">
    <polygon class="st7" points="-185.9 -144.4 -185.9 154.9 -96.4 154.9 2.7 254 101.8 154.9 200.9 254 300 154.9 399.1 254 498.2 154.9 597.3 254 696.4 154.9 774.5 154.9 774.5 -144.4 -185.9 -144.4"/>
  </g>
  <g>
    <path id="path4374-4-3" class="st4" d="M235,328.5c-15.5,4.3-28.9,10.9-48.7,10.3l-12.8-1.7,18.1,17.8,8.3-5.8c13.2-4.2,24.6-12.5,35.2-20.6h0Z"/>
    <path id="path4370-6-2" class="st4" d="M138.7,386.8c3.3-4.3,6.8-8.8,7.5-23.6l-.3-7.5,18.8,7.3-3,6.3c.2,10.8,2.9,19.8,5.8,28.6-5.4-6.5-9.4-12.5-10.8-18.3.7,8-2.7,11.1-5.3,14.6.5-7.3-.2-13-1-18.3-1.4,3.8-4.7,7.5-11.8,11h0Z"/>
    <path class="st4" d="M238.9,378.3c.8,0,13.5-.4,19.8-1.5,6.6-1.2,20.1-5.8,20.1-5.8,0,0-9.3-.4-13.5-.8-8.6-.8-17.5-.7-25.8-2.5-8-1.7-15.7-4.2-23.1-7.8-6.8-3.3-12.7-8.1-18.8-12.6-5-3.6-10-7.2-14.6-11.3-2.3-2-4.3-4.3-6.3-6.5-2.4-2.8-4.8-5.6-7-8.5-3-3.9-2.2-6.8-1-9.5.4-.8.8-1.7,1.2-2.5,1.9-2.7,3.1-6,3.1-9.5,0-9.1-7.3-16.4-16.4-16.4s-14.4,5.5-16,12.8l-19.3-3,18.3,11,1.7,10.3s-6.8,5.1-9,8.5c-2.6,3.9-4.5,8.6-4.8,13.3-.3,5,.7,10.3,3.3,14.6,3.3,5.4,9.1,9.1,14.6,12.3,5.2,3,10.9,5.4,16.6,7.5,5,1.9,15.6,4.5,15.6,4.5,2.8,7.2,3.8,15.6,3.3,26.1,2.7-3.5,5.1-8,5.8-15.6,3.5,4.6,7,9.5,10.5,17.3.5-9.5-1.8-15-4-20.1,5.2,8.5,13.3,13.2,21.8,17.1-8.5-7.5-14.8-15.2-19.3-23.3,0,0,8.8,0,13.1.8,6.4,1.1,12.6,3,18.6,5.5,16.2,6.9,45.9,25.8,45.9,25.8,0,0-6.1-7.8-9.3-11.5-7.2-8.5-23.9-18.6-24.8-18.8Z"/>
    <circle id="path4376-3-6" class="st4" cx="153.2" cy="297.2" r="3.8"/>
    <circle id="path4378-8-1" class="st4" cx="153.2" cy="297.2" r="1.5"/>
    <path id="path4372-8-9" class="st4" d="M169.9,321.5c-9.5-.7-17.3.1-19.6,6-2.2,7.4,0,11,3.5,14.8,7,7.8,15.8,11.4,23.1,14.3,10.1,3.2,20.1,4.8,30.1,4,14.6.2,24.2-8.3,35.1-13.5-13.7,2.4-28.5,5.3-40.1-1-10.1-5.6-11.9-6.3-17.7-11-4.9-3.9-14.5-13.6-14.5-13.6h0Z"/>
  </g>
  <g>
    <path id="path4374-4-31" data-name="path4374-4-3" class="st4" d="M335.2,484.5c-15.5,4.3-28.9,10.9-48.7,10.3l-12.8-1.7,18.1,17.8,8.3-5.8c13.2-4.2,24.6-12.5,35.2-20.6h0Z"/>
    <path id="path4370-6-21" data-name="path4370-6-2" class="st4" d="M238.8,542.8c3.3-4.3,6.8-8.8,7.5-23.6l-.3-7.5,18.8,7.3-3,6.3c.2,10.8,2.9,19.8,5.8,28.6-5.4-6.5-9.4-12.5-10.8-18.3.7,8-2.7,11.1-5.3,14.6.5-7.3-.2-13-1-18.3-1.4,3.8-4.7,7.5-11.8,11h0Z"/>
    <path class="st4" d="M339,534.3c.8,0,13.5-.4,19.8-1.5,6.6-1.2,20.1-5.8,20.1-5.8,0,0-9.3-.4-13.5-.8-8.6-.8-17.5-.7-25.8-2.5-8-1.7-15.7-4.2-23.1-7.8-6.8-3.3-12.7-8.1-18.8-12.6-5-3.6-10-7.2-14.6-11.3-2.3-2-4.3-4.3-6.3-6.5-2.4-2.8-4.8-5.6-7-8.5-3-3.9-2.2-6.8-1-9.5.4-.8.8-1.7,1.2-2.5,1.9-2.7,3.1-6,3.1-9.5,0-9.1-7.3-16.4-16.4-16.4s-14.4,5.5-16,12.8l-19.3-3,18.3,11,1.7,10.3s-6.8,5.1-9,8.5c-2.6,3.9-4.5,8.6-4.8,13.3-.3,5,.7,10.3,3.3,14.6,3.3,5.4,9.1,9.1,14.6,12.3,5.2,3,10.9,5.4,16.6,7.5,5,1.9,15.6,4.5,15.6,4.5,2.8,7.2,3.8,15.6,3.3,26.1,2.7-3.5,5.1-8,5.8-15.6,3.5,4.6,7,9.5,10.5,17.3.5-9.5-1.8-15-4-20.1,5.2,8.5,13.3,13.2,21.8,17.1-8.5-7.5-14.8-15.2-19.3-23.3,0,0,8.8,0,13.1.8,6.4,1.1,12.6,3,18.6,5.5,16.2,6.9,45.9,25.8,45.9,25.8,0,0-6.1-7.8-9.3-11.5-7.2-8.5-23.9-18.6-24.8-18.8Z"/>
    <circle id="path4376-3-61" data-name="path4376-3-6" class="st4" cx="253.3" cy="453.2" r="3.8"/>
    <circle id="path4378-8-11" data-name="path4378-8-1" class="st4" cx="253.3" cy="453.2" r="1.5"/>
    <path id="path4372-8-91" data-name="path4372-8-9" class="st4" d="M270,477.5c-9.5-.7-17.3.1-19.6,6-2.2,7.4,0,11,3.5,14.8,7,7.8,15.8,11.4,23.1,14.3,10.1,3.2,20.1,4.8,30.1,4,14.6.2,24.2-8.3,35.1-13.5-13.7,2.4-28.5,5.3-40.1-1-10.1-5.6-11.9-6.3-17.7-11-4.9-3.9-14.5-13.6-14.5-13.6h0Z"/>
  </g>
  <g>
    <path id="path4374-4-32" data-name="path4374-4-3" class="st4" d="M461.5,328.5c-15.5,4.3-28.9,10.9-48.7,10.3l-12.8-1.7,18.1,17.8,8.3-5.8c13.2-4.2,24.6-12.5,35.2-20.6h0Z"/>
    <path id="path4370-6-22" data-name="path4370-6-2" class="st4" d="M365.1,386.8c3.3-4.3,6.8-8.8,7.5-23.6l-.3-7.5,18.8,7.3-3,6.3c.2,10.8,2.9,19.8,5.8,28.6-5.4-6.5-9.4-12.5-10.8-18.3.7,8-2.7,11.1-5.3,14.6.5-7.3-.2-13-1-18.3-1.4,3.8-4.7,7.5-11.8,11h0Z"/>
    <path class="st4" d="M465.3,378.3c.8,0,13.5-.4,19.8-1.5,6.6-1.2,20.1-5.8,20.1-5.8,0,0-9.3-.4-13.5-.8-8.6-.8-17.5-.7-25.8-2.5-8-1.7-15.7-4.2-23.1-7.8-6.8-3.3-12.7-8.1-18.8-12.6-5-3.6-10-7.2-14.6-11.3-2.3-2-4.3-4.3-6.3-6.5-2.4-2.8-4.8-5.6-7-8.5-3-3.9-2.2-6.8-1-9.5.4-.8.8-1.7,1.2-2.5,1.9-2.7,3.1-6,3.1-9.5,0-9.1-7.3-16.4-16.4-16.4s-14.4,5.5-16,12.8l-19.3-3,18.3,11,1.7,10.3s-6.8,5.1-9,8.5c-2.6,3.9-4.5,8.6-4.8,13.3-.3,5,.7,10.3,3.3,14.6,3.3,5.4,9.1,9.1,14.6,12.3,5.2,3,10.9,5.4,16.6,7.5,5,1.9,15.6,4.5,15.6,4.5,2.8,7.2,3.8,15.6,3.3,26.1,2.7-3.5,5.1-8,5.8-15.6,3.5,4.6,7,9.5,10.5,17.3.5-9.5-1.8-15-4-20.1,5.2,8.5,13.3,13.2,21.8,17.1-8.5-7.5-14.8-15.2-19.3-23.3,0,0,8.8,0,13.1.8,6.4,1.1,12.6,3,18.6,5.5,16.2,6.9,45.9,25.8,45.9,25.8,0,0-6.1-7.8-9.3-11.5-7.2-8.5-23.9-18.6-24.8-18.8Z"/>
    <circle id="path4376-3-62" data-name="path4376-3-6" class="st4" cx="379.7" cy="297.2" r="3.8"/>
    <circle id="path4378-8-12" data-name="path4378-8-1" class="st4" cx="379.7" cy="297.2" r="1.5"/>
    <path id="path4372-8-92" data-name="path4372-8-9" class="st4" d="M396.4,321.5c-9.5-.7-17.3.1-19.6,6-2.2,7.4,0,11,3.5,14.8,7,7.8,15.8,11.4,23.1,14.3,10.1,3.2,20.1,4.8,30.1,4,14.6.2,24.2-8.3,35.1-13.5-13.7,2.4-28.5,5.3-40.1-1-10.1-5.6-11.9-6.3-17.7-11-4.9-3.9-14.5-13.6-14.5-13.6h0Z"/>
  </g>
  <g>
    <g id="g3067">
      <g id="layer4">
        <g id="g5605">
          <g id="g4308">
            <g id="layer7">
              <g id="g5262">
                <g id="g5264">
                  <g id="g5266">
                    <g id="g5268">
                      <g id="g5270">
                        <g id="g5272">
                          <path id="path5274" class="st5" d="M226.3,40.5h148.1l-2,87.5h-144.6l-1.6-87.5h0Z"/>
                          <path id="path5276" class="st11" d="M231.5,41.5l2.2,82.3h133l1.9-83-6.3-4.5c-13.8,3.6-22,1.6-32.2,0-9-1.8-18.1-3.3-30,4.9-7.3-3.7-12-8.8-34.4-4.5-9.3,1.3-18.5,2.3-27.8,0l-6.3,4.9h0Z"/>
                          <path id="path5280" class="st8" d="M300,122.1V41"/>
                        </g>
                        <path id="path5284" class="st1" d="M301.3,122.7c21-10.9,43.1,2.7,59.7-4.9"/>
                        <path id="path5286" class="st1" d="M301.9,123.3c20.9-9.7,44.2,3,60.3-4.2"/>
                        <path id="path5288" class="st1" d="M363.8,120.7c-16.2,5.8-40.6-4.8-61.3,3.1,23.7-4.2,45.8,2,62.6-1.6l2.1-82.3"/>
                        <path id="path5290" class="st6" d="M363.6,120.9l2.4-81.9"/>
                        <path id="path5292" class="st6" d="M362.2,119.3l2.4-81.2"/>
                        <path id="path5294" class="st6" d="M360.9,117.9l2.5-80.7"/>
                        <path id="path5296" class="st1" d="M298.5,122.7c-21-10.9-43.1,3.1-59.6-4.6"/>
                        <path id="path5298" class="st1" d="M297.9,123.4c-20.9-9.7-44.2,3.2-60.4-4"/>
                        <path id="path5300" class="st1" d="M236.1,121c16.2,5.8,40.6-5.1,61.3,2.9-23.7-4.2-45.8,2-62.6-1.6l-2.2-81.5"/>
                        <path id="path5302" class="st6" d="M236.2,121.2l-2.4-81.5"/>
                        <path id="path5304" class="st6" d="M237.6,119.7l-2.4-81"/>
                        <path id="path5306" class="st6" d="M239,118.3l-2.5-80.5"/>
                      </g>
                    </g>
                  </g>
                  <path id="path5390" class="st10" d="M297.9,123.6s.2-.1.3-.2c.5-.3,1.2-.7,1.8-1h0s0,0,0,0c.5.3,1.1.6,1.6.9.1,0,.3.2.4.3h0s-2.1,0-2.1,0c-2.1,0-2.1,0-2.1,0h0Z"/>
                </g>
              </g>
            </g>
          </g>
        </g>
      </g>
    </g>
    <g>
      <path d="M257,63.7c.5,0,.9-.1,1.1-.2.3,0,.5-.2.6-.4.1-.2.2-.4.2-.7,0-.3,0-.7,0-1.1l-.3-5.5c0-.5,0-.8-.1-1.1,0-.3-.2-.5-.3-.7-.2-.2-.4-.3-.7-.4-.3,0-.7-.1-1.2-.1v-.2c.6,0,1.1,0,1.6,0,.5,0,1.1,0,1.7,0,.4,0,.9,0,1.3,0,.4,0,.9,0,1.3,0v.2c-.5,0-.8.1-1.1.2-.3,0-.5.2-.6.4-.1.2-.2.4-.2.7,0,.3,0,.7,0,1.1l.3,5.5c0,.5,0,.8.1,1.1,0,.3.2.5.3.7.2.2.4.3.7.4.3,0,.7.1,1.2.1v.2c-.5,0-1,0-1.5,0-.5,0-1,0-1.5,0-.5,0-1,0-1.5,0-.5,0-1,0-1.5,0v-.2Z"/>
      <path d="M263.7,52.9c.5,0,.9,0,1.4,0,.4,0,.9,0,1.5,0,.3,0,.6,0,.9,0,.3,0,.6,0,.9,0,.2.2.5.5.9.9.4.4.9.8,1.5,1.3.5.5,1.1,1,1.8,1.6.6.6,1.2,1.1,1.8,1.6.6.5,1.1,1,1.6,1.5s.9.8,1.2,1.1h0c0-.3,0-.7,0-1,0-.3,0-.6,0-1v-1.9c-.1-.7-.2-1.3-.3-1.8,0-.5-.2-.9-.4-1.3-.2-.3-.5-.6-.8-.8-.3-.2-.8-.3-1.3-.3v-.2c.5,0,.9,0,1.4,0,.5,0,1,0,1.4,0,.4,0,.9,0,1.3,0,.4,0,.9,0,1.3,0v.2c-.8.1-1.4.3-1.7.7-.3.3-.4.8-.4,1.4l.5,8.7h-.8c-.8-.9-1.6-1.8-2.5-2.6-.9-.9-1.7-1.7-2.6-2.4-.9-.8-1.7-1.5-2.5-2.1-.8-.7-1.5-1.2-2.2-1.8,0,.3,0,.6,0,.8,0,.3,0,.6,0,.8v2.9c.2,1,.3,1.7.3,2.3,0,.6.2,1,.4,1.3.2.3.5.5.8.6.4,0,.9.2,1.5.2v.2c-.7,0-1.4,0-2,0-.7,0-1.3,0-2,0-.4,0-.8,0-1.2,0-.4,0-.8,0-1.2,0v-.2c.4,0,.8-.1,1.2-.2s.6-.2.8-.3c.2-.1.4-.3.5-.5.1-.2.2-.5.1-.9v-7.5c-.6-.3-1.1-.5-1.6-.6-.5-.1-1.1-.3-1.6-.4v-.2Z"/>
      <path d="M243.4,83.9c.4,0,.8-.1,1.1-.2.3,0,.5-.2.6-.3.1-.1.2-.2.3-.4,0-.1,0-.3,0-.4l-.4-7.6c0-.2,0-.4,0-.6,0-.2-.1-.3-.3-.5s-.4-.2-.6-.3c-.3,0-.6-.1-1.1-.1v-.2c.3,0,.7,0,1,0,.4,0,.7,0,1.1,0,.9,0,1.8,0,2.6-.2.8-.1,1.6-.2,2.5-.2,1.1,0,2.1,0,3.1.3,1,.2,1.8.6,2.6,1.1.8.5,1.4,1.1,1.8,1.8.5.7.7,1.5.8,2.4,0,.9-.1,1.7-.5,2.3-.4.7-.9,1.2-1.5,1.6-.7.4-1.4.8-2.3,1-.9.2-1.8.3-2.7.4-.7,0-1.4,0-1.9,0-.5,0-1,0-1.4,0-.4,0-.7,0-1.1,0-.3,0-.6,0-.9,0-.5,0-.9,0-1.4,0-.4,0-.9,0-1.4,0v-.2ZM247.2,82.6c.5.3,1,.5,1.5.6.6.1,1.1.2,1.7.1,2.1,0,3.6-.6,4.5-1.4.9-.9,1.3-2.2,1.2-3.8,0-.7-.2-1.4-.6-2-.4-.6-.8-1.1-1.4-1.6-.6-.4-1.3-.8-2.1-1-.8-.2-1.6-.3-2.6-.3-.9,0-1.8.2-2.7.5,0,.6,0,1.1,0,1.7,0,.6,0,1.1,0,1.7l.3,5.4Z"/>
      <path d="M260.2,78.1c0-.9.1-1.7.5-2.4.4-.7.9-1.3,1.5-1.8.7-.5,1.4-.9,2.3-1.2.9-.3,1.9-.4,2.9-.5,1,0,2,0,2.9.3.9.2,1.7.6,2.4,1,.7.5,1.3,1,1.7,1.7.4.7.7,1.5.7,2.4s-.1,1.7-.5,2.4c-.4.7-.9,1.3-1.5,1.8-.7.5-1.4.9-2.3,1.2-.9.3-1.9.4-2.9.5-1,0-2,0-2.9-.3-.9-.2-1.7-.6-2.4-1-.7-.5-1.3-1-1.7-1.7-.4-.7-.7-1.5-.7-2.4ZM262.4,78c0,.7.2,1.3.5,1.9.3.6.7,1.1,1.1,1.6.5.4,1.1.8,1.7,1.1.7.3,1.4.4,2.3.3.8,0,1.6-.2,2.2-.5.6-.3,1.2-.7,1.6-1.2.4-.5.8-1,1-1.6.2-.6.3-1.3.3-1.9,0-.7-.2-1.3-.5-1.9-.3-.6-.7-1.1-1.1-1.6-.5-.4-1.1-.8-1.7-1.1-.7-.3-1.4-.4-2.3-.3-.8,0-1.6.2-2.2.5-.6.3-1.2.7-1.6,1.2-.4.5-.8,1-1,1.6-.2.6-.3,1.3-.3,1.9Z"/>
      <path d="M288.3,71.8c.5,0,1,0,1.5,0,.5,0,1,0,1.5,0,.4,0,.9,0,1.3,0,.4,0,.9,0,1.3,0v.2c-.6,0-1,.2-1.4.4-.4.2-.5.6-.5,1.1,0,.3,0,.7.2,1.3.1.6.3,1.3.5,2,.2.7.4,1.5.6,2.2.2.7.4,1.3.6,1.8,0,.2.2.4.3.6,0,.2.2.3.4.4.2.1.4.2.6.3.3,0,.6.1,1.1.2v.2c-.5,0-1.1,0-1.6,0-.5,0-1.1,0-1.6,0-.5,0-1,0-1.5,0-.5,0-1,0-1.5.1v-.2c.3,0,.5,0,.8-.2.3,0,.5-.1.7-.2.2-.1.3-.2.4-.4,0-.2.1-.4.1-.7,0-.1,0-.3,0-.5,0-.2,0-.5-.2-.7l-1.7-6.5h0c-.3.8-.7,1.6-1.1,2.4-.4.8-.8,1.6-1.1,2.4s-.7,1.6-1.1,2.4c-.3.8-.7,1.6-.9,2.5h0c-.7-1.7-1.6-3.3-2.5-4.8-.9-1.5-1.9-3.1-2.9-4.6h0c0,.6-.2,1.3-.2,2,0,.7-.1,1.4-.2,2.1,0,.7,0,1.3-.1,1.9,0,.6,0,1,0,1.3,0,.4,0,.7.1.9,0,.3.2.5.4.6.2.2.4.3.7.4.3,0,.7.1,1.2.1v.2c-.6,0-1.1,0-1.7,0-.5,0-1.1,0-1.7,0-.4,0-.8,0-1.2,0-.4,0-.8,0-1.2,0v-.2c.3,0,.6,0,.8-.2.3,0,.5-.2.7-.3.2-.1.4-.3.6-.4.1-.2.2-.4.3-.6,0-.4.1-.8.2-1.2,0-.4,0-.8.1-1.3l.7-5.9c-.3-.2-.6-.3-1-.4-.4-.1-.8-.2-1.2-.2v-.2c.6,0,1.2,0,1.7,0,.6,0,1.2,0,1.7,0,.4,0,.8,0,1.2,0,.4,0,.8,0,1.2,0v.2c-.2,0-.5.2-.7.3-.2.1-.3.3-.3.6,0,.2,0,.4.1.5,0,.2.2.3.3.5l3.2,5.6c.6-1.2,1.2-2.4,1.8-3.5.6-1.2,1.1-2.4,1.5-3.6-.2-.1-.3-.2-.5-.3-.2,0-.4-.1-.6-.2v-.2Z"/>
      <path d="M250.6,103.3c.5,0,.9-.1,1.1-.2.3,0,.5-.2.6-.4s.2-.4.2-.7c0-.3,0-.7,0-1.1l-.3-5.5c0-.5,0-.8-.1-1.1,0-.3-.2-.5-.3-.7-.2-.2-.4-.3-.7-.4-.3,0-.7-.1-1.2-.1v-.2c.6,0,1.1,0,1.6,0,.5,0,1.1,0,1.7,0,.4,0,.9,0,1.3,0,.4,0,.9,0,1.3,0v.2c-.5,0-.8.1-1.1.2-.3,0-.5.2-.6.4-.1.2-.2.4-.2.7,0,.3,0,.7,0,1.1l.3,5.5c0,.5,0,.8.1,1.1,0,.3.2.5.3.7.2.2.4.3.7.4.3,0,.7.1,1.2.1v.2c-.5,0-1,0-1.5,0-.5,0-1,0-1.5,0-.5,0-1,0-1.5,0-.5,0-1,0-1.5,0v-.2Z"/>
      <path d="M257.3,92.5c.5,0,.9,0,1.4,0,.4,0,.9,0,1.5,0,.3,0,.6,0,.9,0,.3,0,.6,0,.9,0,.2.2.5.5.9.9.4.4.9.8,1.5,1.3.5.5,1.1,1,1.8,1.6.6.6,1.2,1.1,1.8,1.6.6.5,1.1,1,1.6,1.5.5.5.9.8,1.2,1.1h0c0-.3,0-.7,0-1,0-.3,0-.6,0-1v-1.9c-.1-.7-.2-1.3-.3-1.8,0-.5-.2-.9-.4-1.3s-.5-.6-.8-.8c-.3-.2-.8-.3-1.3-.3v-.2c.5,0,.9,0,1.4,0,.5,0,1,0,1.4,0,.4,0,.9,0,1.3,0s.9,0,1.3,0v.2c-.8.1-1.4.3-1.7.7-.3.3-.4.8-.4,1.4l.5,8.7h-.8c-.8-.9-1.6-1.8-2.5-2.6-.9-.9-1.7-1.7-2.6-2.4-.9-.8-1.7-1.5-2.5-2.1-.8-.7-1.5-1.2-2.2-1.8,0,.3,0,.6,0,.8,0,.3,0,.6,0,.8v2.9c.2,1,.3,1.7.3,2.3,0,.6.2,1,.4,1.3.2.3.5.5.8.6.4,0,.9.2,1.5.2v.2c-.7,0-1.4,0-2,0-.7,0-1.3,0-2,0-.4,0-.8,0-1.2,0-.4,0-.8,0-1.2,0v-.2c.4,0,.8-.1,1.2-.2.3,0,.6-.2.8-.3.2-.1.4-.3.5-.5.1-.2.2-.5.1-.9v-7.5c-.6-.3-1.1-.5-1.6-.6-.5-.1-1.1-.3-1.6-.4v-.2Z"/>
      <path d="M274.8,97.3c0-.9.1-1.7.5-2.4.4-.7.9-1.3,1.5-1.8.7-.5,1.4-.9,2.3-1.2.9-.3,1.9-.4,2.9-.5,1,0,2,0,2.9.3s1.7.6,2.4,1c.7.5,1.3,1,1.7,1.7s.7,1.5.7,2.4c0,.9-.1,1.7-.5,2.4-.4.7-.9,1.3-1.5,1.8-.7.5-1.4.9-2.3,1.2s-1.9.4-2.9.5c-1,0-2,0-2.9-.3-.9-.2-1.7-.6-2.4-1-.7-.5-1.3-1-1.7-1.7-.4-.7-.7-1.5-.7-2.4ZM276.9,97.2c0,.7.2,1.3.5,1.9.3.6.7,1.1,1.1,1.6.5.4,1.1.8,1.7,1.1.7.3,1.4.4,2.3.3s1.6-.2,2.2-.5c.6-.3,1.2-.7,1.6-1.2.4-.5.8-1,1-1.6.2-.6.3-1.3.3-1.9,0-.7-.2-1.3-.5-1.9-.3-.6-.7-1.1-1.1-1.6-.5-.4-1.1-.8-1.7-1.1-.7-.3-1.4-.4-2.3-.3s-1.6.2-2.2.5c-.6.3-1.2.7-1.6,1.2-.4.5-.8,1-1,1.6-.2.6-.3,1.3-.3,1.9Z"/>
    </g>
    <g>
      <path d="M319.9,55c-.2-.5-.4-1-.6-1.4-.3-.4-.6-.8-1-1.1-.4-.3-.8-.6-1.3-.8-.5-.2-1.1-.3-1.7-.3-.8,0-1.6,0-2.2.3-.6.2-1.1.6-1.5,1-.4.4-.7.9-.9,1.5-.2.6-.3,1.2-.4,1.9,0,.7,0,1.3.2,1.9.2.6.5,1.1.9,1.6.4.5.9.8,1.5,1.1.6.3,1.4.4,2.2.5,1.3,0,2.4-.2,3.3-.7.9-.5,1.8-1.2,2.5-2l.5.3c-.5.5-1,1-1.5,1.4-.5.4-1,.8-1.6,1-.6.3-1.2.5-1.8.6-.6.1-1.4.2-2.2.2-.9,0-1.8-.2-2.6-.5-.8-.3-1.5-.7-2.1-1.2s-1-1.1-1.4-1.8c-.3-.7-.5-1.5-.4-2.3,0-.8.3-1.6.7-2.3.4-.7.9-1.3,1.5-1.7.6-.5,1.4-.8,2.2-1.1.8-.3,1.7-.4,2.6-.3.5,0,1,0,1.4.1.4,0,.8.1,1.2.2.4,0,.8.1,1.1.2.4,0,.7.1,1.1.1,0,.2,0,.5,0,.8s0,.6,0,.9c0,.3,0,.6,0,1s0,.6,0,.8h-.3Z"/>
      <path d="M322.4,56.8c0-.9.3-1.7.7-2.4.4-.7,1-1.3,1.7-1.7.7-.5,1.5-.8,2.4-1,.9-.2,1.9-.3,2.9-.3,1,0,2,.2,2.9.5.9.3,1.7.7,2.3,1.2.7.5,1.2,1.1,1.5,1.8.4.7.5,1.5.5,2.4,0,.9-.3,1.7-.7,2.4-.4.7-1,1.3-1.7,1.7-.7.5-1.5.8-2.4,1s-1.9.3-2.9.3c-1,0-2-.2-2.9-.5s-1.7-.7-2.3-1.2c-.7-.5-1.2-1.1-1.5-1.8-.4-.7-.5-1.5-.5-2.4ZM324.5,56.8c0,.7,0,1.3.3,1.9.2.6.5,1.2,1,1.6.4.5,1,.9,1.6,1.2.6.3,1.4.5,2.2.5.8,0,1.6,0,2.3-.3.7-.3,1.3-.6,1.7-1.1.5-.4.9-1,1.1-1.6.3-.6.4-1.2.5-1.9,0-.7,0-1.3-.3-1.9-.2-.6-.5-1.2-1-1.6-.4-.5-1-.9-1.6-1.2-.6-.3-1.4-.5-2.2-.5-.8,0-1.6,0-2.3.3-.7.3-1.3.6-1.7,1.1-.5.4-.9,1-1.1,1.6-.3.6-.4,1.2-.5,1.9Z"/>
      <path d="M338.9,51.9c.5,0,.9,0,1.3,0,.4,0,.9,0,1.5,0,.3,0,.6,0,.9,0,.3,0,.6,0,.9,0,.2.2.4.5.8.9.4.4.8.9,1.3,1.4.5.5,1,1.1,1.6,1.7.6.6,1.1,1.2,1.6,1.8.5.6,1,1.1,1.5,1.6.4.5.8.9,1,1.2h0c0-.3,0-.7,0-1,0-.3,0-.6,0-1v-1.9c.1-.7.1-1.3.1-1.8,0-.5-.1-1-.3-1.3s-.4-.6-.7-.8c-.3-.2-.8-.3-1.3-.4v-.2c.5,0,1,0,1.4,0,.5,0,1,0,1.4,0,.4,0,.9,0,1.3,0,.4,0,.9,0,1.3,0v.2c-.9,0-1.5.2-1.8.5-.3.3-.5.8-.6,1.4l-.5,8.7h-.8c-.7-1-1.4-1.9-2.2-2.8-.8-.9-1.6-1.8-2.3-2.6-.8-.8-1.5-1.6-2.3-2.3-.7-.7-1.4-1.3-2-1.9,0,.3,0,.6,0,.8s0,.6,0,.8l-.2,2.9c0,1,0,1.7,0,2.3,0,.6.1,1,.3,1.3s.4.5.8.6c.4.1.8.2,1.5.3v.2c-.7,0-1.4,0-2-.1s-1.3,0-2,0c-.4,0-.8,0-1.2,0-.4,0-.8,0-1.2,0v-.2c.5,0,.9,0,1.2-.1.3,0,.6-.1.9-.2.2-.1.4-.3.5-.5.1-.2.2-.5.2-.9l.6-7.5c-.4-.3-.9-.5-1.4-.7-.5-.2-1-.3-1.6-.5v-.2Z"/>
      <path d="M324.2,79.5c0,.4,0,.8,0,1s.1.4.3.6c.2.1.4.3.7.4.3,0,.8.2,1.3.3v.2c-.6,0-1.2,0-1.7-.1-.6,0-1.1,0-1.7,0-.5,0-1,0-1.5,0-.5,0-1,0-1.5,0v-.2c.5,0,.9,0,1.2-.1.3,0,.5-.2.7-.4.2-.2.3-.4.3-.7,0-.3,0-.7.1-1.1l.3-5.5c0-.5,0-.8,0-1.1,0-.3-.1-.5-.2-.7-.1-.2-.3-.3-.6-.4-.3,0-.7-.2-1.1-.2v-.2c.2,0,.4,0,.8,0,.3,0,.6,0,1,0,.3,0,.6,0,1,0s.6,0,.7,0l4.4.2c.7,0,1.3,0,1.8,0,.5,0,1.1,0,1.7,0,0,.2,0,.5,0,.7,0,.2,0,.4,0,.7,0,.3,0,.6,0,.8,0,.3,0,.6,0,.8h-.3c-.2-.6-.4-1.1-.8-1.5-.3-.4-.7-.6-1.2-.8s-1-.3-1.6-.3c-.6,0-1.2,0-1.9-.1-.2,0-.5,0-.7,0-.2,0-.5,0-.7,0l-.2,4.1h1.6c.8,0,1.4,0,1.9-.3.5-.3.8-.7,1.1-1.3h.2c0,.7-.1,1.5-.2,2.2,0,.4,0,.8,0,1.1,0,.3,0,.7,0,1.1h-.2c-.1-.4-.2-.8-.4-1-.1-.3-.3-.5-.5-.7-.2-.2-.4-.3-.7-.4-.3,0-.7-.2-1.1-.2-.1,0-.2,0-.4,0-.1,0-.3,0-.4,0h-1s-.2,3.4-.2,3.4Z"/>
      <path d="M333.1,82c.5,0,.9,0,1.1-.1.3,0,.5-.2.6-.4.2-.2.3-.4.3-.7,0-.3,0-.7.1-1.1l.3-5.5c0-.5,0-.8,0-1.1,0-.3,0-.5-.2-.7-.1-.2-.3-.3-.6-.4-.3,0-.7-.2-1.1-.2v-.2c.6,0,1.1,0,1.7.1.5,0,1.1,0,1.7,0,.4,0,.9,0,1.3,0,.4,0,.9,0,1.3,0v.2c-.5,0-.9,0-1.1.1-.3,0-.5.2-.6.4-.1.2-.2.4-.3.7,0,.3,0,.7-.1,1.1l-.3,5.5c0,.5,0,.8,0,1.1,0,.3,0,.5.2.7.1.2.3.3.6.4.3,0,.7.2,1.2.2v.2c-.5,0-1,0-1.6-.1-.5,0-1,0-1.5,0-.5,0-1,0-1.5,0-.5,0-1,0-1.5,0v-.2Z"/>
      <path d="M312.5,101c.4,0,.8,0,1.1-.1.3,0,.5-.2.6-.3.1-.1.2-.2.3-.4s0-.3,0-.4l.4-7.6c0-.2,0-.5,0-.6s-.1-.3-.2-.5-.3-.2-.6-.3c-.3,0-.6-.2-1.1-.2v-.2c.4,0,.7,0,1.1,0,.4,0,.7,0,1.1,0,.9,0,1.8,0,2.6,0s1.7,0,2.5,0c1.1,0,2.1.2,3.1.5.9.3,1.8.7,2.5,1.3.7.5,1.2,1.2,1.6,1.9.4.7.5,1.5.5,2.4,0,.9-.3,1.7-.7,2.3-.4.6-1,1.1-1.7,1.5-.7.4-1.5.7-2.4.8-.9.2-1.8.2-2.7.2-.7,0-1.4,0-1.9,0-.5,0-1,0-1.4,0-.4,0-.7,0-1.1,0-.3,0-.6,0-.9,0-.5,0-.9,0-1.4,0s-.9,0-1.4,0v-.2ZM316.4,100c.4.3.9.6,1.5.7.6.2,1.1.2,1.7.3,2.1,0,3.6-.3,4.6-1.1,1-.8,1.5-2.1,1.6-3.7,0-.7,0-1.4-.4-2-.3-.6-.7-1.2-1.2-1.7s-1.2-.9-2-1.1c-.8-.3-1.6-.4-2.5-.5-.9,0-1.9,0-2.7.4,0,.6-.1,1.1-.2,1.7,0,.6,0,1.1-.1,1.7l-.3,5.4Z"/>
      <path d="M329.9,96.4c0-.9.3-1.7.7-2.4.4-.7,1-1.3,1.7-1.7.7-.5,1.5-.8,2.4-1,.9-.2,1.9-.3,2.9-.3,1,0,2,.2,2.9.5.9.3,1.7.7,2.3,1.2.7.5,1.2,1.1,1.5,1.8.4.7.5,1.5.5,2.4,0,.9-.3,1.7-.7,2.4-.4.7-1,1.3-1.7,1.7-.7.5-1.5.8-2.4,1-.9.2-1.9.3-2.9.3-1,0-2-.2-2.9-.5-.9-.3-1.7-.7-2.3-1.2-.7-.5-1.2-1.1-1.5-1.8-.4-.7-.5-1.5-.5-2.4ZM332,96.5c0,.7,0,1.3.3,1.9.2.6.5,1.2,1,1.6.4.5,1,.9,1.6,1.2.6.3,1.4.5,2.2.5.8,0,1.6,0,2.3-.3.7-.3,1.3-.6,1.7-1.1.5-.4.9-1,1.1-1.6s.4-1.2.5-1.9c0-.7,0-1.3-.3-1.9-.2-.6-.5-1.2-1-1.6-.4-.5-1-.9-1.6-1.2-.6-.3-1.4-.5-2.2-.5-.8,0-1.6,0-2.3.3-.7.3-1.3.6-1.7,1.1-.5.4-.9,1-1.1,1.6-.3.6-.4,1.2-.5,1.9Z"/>
    </g>
  </g>
  <g>
    <path id="path3095" class="st9" d="M45.3,117.2l-21.9-57.4c6.3-2,18.5,12,18.8,18.1,4.2-4.6,7.5-6.3,11.7-5.9,4.6,0,9.4,9.5,9.4,9.5,0,0-4.4-1-6.7-.3-2.3.7-5.1,4-4.5,7.6.4,2.8,2.3,7.7,9.5,7.3,7.2-.4,11.4-11,11.4-11,0,0,5.3,10.3,12.1,9.9,6.8-.3,10-4.9,10-9.3,0-4.4-1.9-9.2-6.2-9.2-4.3,0-8.6,4.4-8.6,4.4,0,0-3.7-8,1.8-14.1s12.6.5,12.6.5c0,0-1-7.7,1.9-12.9,1.3-2.4,3.3-4.5,4.9-6,1.6-1.5,2.9-2.4,2.9-2.4,0,0,1.3.9,2.9,2.4,1.6,1.5,3.5,3.6,4.9,6,2.9,5.2,1.9,12.9,1.9,12.9,0,0,7.1-6.7,12.6-.5s1.8,14.1,1.8,14.1c0,0-4.2-4.3-8.6-4.4-4.3,0-6.2,4.8-6.2,9.2,0,4.4,3.2,8.9,10,9.3,6.8.3,12.1-9.9,12.1-9.9,0,0,4.2,10.5,11.4,11,7.2.4,9.1-4.5,9.5-7.3.5-3.6-2.2-6.9-4.5-7.6-2.3-.7-6.7.3-6.7.3,0,0,4.7-9.6,9.4-9.5,4.1-.4,7.4,1.3,11.7,5.9.3-6.1,12.5-20.1,18.8-18.1l-21.9,57.4h-59c0,.1-59,0-59,0Z"/>
    <path id="path3877" class="st3" d="M45.3,117.2c40.9-10.6,80.5-9.7,118,0"/>
  </g>
  <g>
    <path id="path30951" data-name="path3095" class="st9" d="M438.6,117.2l-21.9-57.4c6.3-2,18.5,12,18.8,18.1,4.2-4.6,7.5-6.3,11.7-5.9,4.6,0,9.4,9.5,9.4,9.5,0,0-4.4-1-6.7-.3-2.3.7-5.1,4-4.5,7.6.4,2.8,2.3,7.7,9.5,7.3,7.2-.4,11.4-11,11.4-11,0,0,5.3,10.3,12.1,9.9,6.8-.3,10-4.9,10-9.3,0-4.4-1.9-9.2-6.2-9.2-4.3,0-8.6,4.4-8.6,4.4,0,0-3.7-8,1.8-14.1s12.6.5,12.6.5c0,0-1-7.7,1.9-12.9,1.3-2.4,3.3-4.5,4.9-6,1.6-1.5,2.9-2.4,2.9-2.4,0,0,1.3.9,2.9,2.4,1.6,1.5,3.5,3.6,4.9,6,2.9,5.2,1.9,12.9,1.9,12.9,0,0,7.1-6.7,12.6-.5s1.8,14.1,1.8,14.1c0,0-4.2-4.3-8.6-4.4-4.3,0-6.2,4.8-6.2,9.2,0,4.4,3.2,8.9,10,9.3,6.8.3,12.1-9.9,12.1-9.9,0,0,4.2,10.5,11.4,11,7.2.4,9.1-4.5,9.5-7.3.5-3.6-2.2-6.9-4.5-7.6-2.3-.7-6.7.3-6.7.3,0,0,4.7-9.6,9.4-9.5,4.1-.4,7.4,1.3,11.7,5.9.3-6.1,12.5-20.1,18.8-18.1l-21.9,57.4h-59c0,.1-59,0-59,0Z"/>
    <path id="path38771" data-name="path3877" class="st3" d="M438.6,117.2c40.9-10.6,80.5-9.7,118,0"/>
  </g>
  <path id="a2" data-name="a" class="st13" d="M1.5,1.5h597v258.5c0,286.2-298.5,398.4-298.5,398.4,0,0-298.5-112.2-298.5-398.4V1.5Z"/>
  <path id="a3" data-name="a" class="st2" d="M1.5,1.5h597v258.5c0,286.2-298.5,398.4-298.5,398.4,0,0-298.5-112.2-298.5-398.4V1.5Z"/>
</svg>